<svg width="20" height="19" viewBox="0 0 20 19" fill="none" xmlns="http://www.w3.org/2000/svg">
<path d="M6.98068 3.64711H6.83527C6.91524 3.64711 6.98068 3.58167 6.98068 3.50169V3.64711H12.5064V3.50169C12.5064 3.58167 12.5719 3.64711 12.6518 3.64711H12.5064V4.95583H13.8151V3.50169C13.8151 2.86005 13.2935 2.33838 12.6518 2.33838H6.83527C6.19363 2.33838 5.67195 2.86005 5.67195 3.50169V4.95583H6.98068V3.64711ZM16.1418 4.95583H3.34533C3.0236 4.95583 2.76367 5.21576 2.76367 5.53749V6.11914C2.76367 6.19912 2.82911 6.26456 2.90909 6.26456H4.00696L4.45593 15.771C4.48501 16.3908 4.9976 16.8798 5.61742 16.8798H13.8697C14.4913 16.8798 15.0021 16.3926 15.0312 15.771L15.4801 6.26456H16.578C16.658 6.26456 16.7234 6.19912 16.7234 6.11914V5.53749C16.7234 5.21576 16.4635 4.95583 16.1418 4.95583ZM13.7297 15.5711H5.75738L5.31751 6.26456H14.1696L13.7297 15.5711Z" fill="#9C9C9C"/>
</svg>
