<svg width="19" height="19" viewBox="0 0 19 19" fill="none" xmlns="http://www.w3.org/2000/svg">
<path d="M12.8818 3.51689C13.0579 3.34078 13.2669 3.20109 13.497 3.10579C13.7271 3.01048 13.9737 2.96143 14.2228 2.96143C14.4718 2.96143 14.7184 3.01048 14.9485 3.10579C15.1786 3.20109 15.3877 3.34078 15.5638 3.51689C15.7399 3.69299 15.8796 3.90206 15.9749 4.13215C16.0702 4.36224 16.1192 4.60884 16.1192 4.85789C16.1192 5.10694 16.0702 5.35355 15.9749 5.58364C15.8796 5.81373 15.7399 6.02279 15.5638 6.1989L6.51198 15.2507L2.82422 16.2564L3.82997 12.5687L12.8818 3.51689Z" stroke="#9C9C9C" stroke-width="1.3295" stroke-linecap="round" stroke-linejoin="round"/>
</svg>
