<svg width="33" height="33" viewBox="0 0 33 33" fill="none" xmlns="http://www.w3.org/2000/svg">
<circle opacity="0.05" r="15.9434" transform="matrix(-1 0 0 1 16.7832 16.2325)" fill="#002337"/>
<g opacity="0.7">
<path d="M9.33136 24.736C9.38209 24.736 9.43282 24.7309 9.48355 24.7233L13.7499 23.975C13.8006 23.9649 13.8488 23.9421 13.8843 23.904L24.6363 13.152C24.6598 13.1285 24.6785 13.1007 24.6912 13.07C24.7039 13.0393 24.7105 13.0064 24.7105 12.9732C24.7105 12.94 24.7039 12.9071 24.6912 12.8764C24.6785 12.8457 24.6598 12.8178 24.6363 12.7944L20.4207 8.57624C20.3725 8.52805 20.3091 8.50269 20.2406 8.50269C20.1721 8.50269 20.1087 8.52805 20.0605 8.57624L9.30853 19.3283C9.27048 19.3663 9.24766 19.412 9.23751 19.4627L8.48926 23.729C8.46458 23.8649 8.4734 24.0047 8.51495 24.1364C8.55649 24.2681 8.62951 24.3877 8.72768 24.4849C8.89509 24.6472 9.10562 24.736 9.33136 24.736ZM11.0409 20.3124L20.2406 11.1152L22.0998 12.9744L12.9001 22.1716L10.6452 22.5698L11.0409 20.3124Z" fill="#002337"/>
<path d="M13.2686 22.6698L10.317 19.7183L9.72675 23.2601L13.2686 22.6698Z" fill="#002337"/>
</g>
</svg>
